<svg xmlns="http://www.w3.org/2000/svg" width="870" height="580" viewBox="0 0 870 580">
  <path d="M736.78 506.45L734 494.14l-.41-.94.11-.36-10.28-45.42c-1.41-6.2-2.86-12.61-3.2-19.24-.34-6.83.51-13.56 1.26-19.5.83-6.61 1.7-13.22 2.57-19.82 1.1-8.35 2.24-17 3.28-25.46 1.82-14.85 3.35-29.37 2.06-43.81-1.86-20.67-9.52-40.57-16.93-59.82-1.51-3.92-4.19-7.77-6.15-7.19-.9.26-1.75 1.64-1.93 3.14a19.88 19.88 0 0 0 .74 6.36l.16.73a117 117 0 0 1 1.45 41.87 4 4 0 0 1-7.85.32c-1.53-3.76-4-9.07-6.31-14.21s-4.88-10.66-6.48-14.58a43 43 0 0 0-7.38-12c-7.29-8.86-16-15.8-25.13-23.14-1.26-1-2.52-2-3.79-3a32.36 32.36 0 0 0-7.29-4.17c-.72-.3-2.8.39-3.77 1.65-.71.93.19 3.51 2.18 6.28l.64.89c8 11.16 17.75 24.72 22.47 38.3q1.25 2.33 2.33 4.7a4.45 4.45 0 0 1-8.48 2.67 50.86 50.86 0 0 0-1.25-4.25c-6-11-15.18-21.08-26.8-29.41-11.14-8-24.75-14.65-41.61-20.33-2.75-.92-4.39-.74-4.72-.52a4.69 4.69 0 0 0 .35 1.93c1.7 5.21 5.76 10 12.4 14.72 2.54 1.8 5.16 3.41 8 5.11a119.63 119.63 0 0 1 10.7 7.12A62.27 62.27 0 0 1 636.32 294v.15a77.5 77.5 0 0 1 10.31 13.16 4 4 0 1 1-6.82 4.18c-12.85-21-40.08-35.5-55.17-42.29-8-3.6-14.15-4.14-18.23-1.58a2.81 2.81 0 0 0-1 .88c-.36.67 1 2.92 4.41 5.23 14.61 9.94 31.22 22.32 43.55 38.79 12.81 17.12 18.91 36.31 17.36 54.28a4 4 0 0 1-.25 7.95c-9.24.31-16.94-4.88-24.67-10.66l-16-12c-4-3-5.55-2.87-6.15-2.56-1.21.65-1.33 3.76-.27 7.56 5.47 19.76 13.6 39.08 21.45 57.77 2.29 5.44 4.66 11.07 8.43 15.34a54.3 54.3 0 0 0 4 3.9 56.78 56.78 0 0 1 4.9 4.91 49.36 49.36 0 0 1 7.33 12.69 142.48 142.48 0 0 1 11.37 54.82 4 4 0 0 1-4 4h-.24c4.2 5.78 16.45 4 25.71 3.41l45.14-1.7c10.39 0 25.73.23 33.19-2.66a4 4 0 0 1-3.89-3.12z" fill="#f8c6b4" fill-rule="evenodd"/>
  <g fill="#f8c6b4" fill-rule="evenodd">
    <path d="M298.05 450.25a54.89 54.89 0 0 0 17.82-13.67c.77-.91 1.52-1.85 2.28-2.79a50.87 50.87 0 0 1 6.59-7.2c3.51-3 7.52-4.93 11.39-6.79 1.9-.92 3.69-1.78 5.41-2.76a43.39 43.39 0 0 0 18.92-22.16c1.37-3.65 2.76-8.27 1.35-11.62-.83-2-1.8-2.29-2.17-2.4-4.29-1.34-13.86 4.86-20.84 9.37-6.13 4-11.42 7.39-15.74 8.23a48.88 48.88 0 0 0-8.51 3 26.17 26.17 0 0 0-5 2.56c-.87.56-1.95 1.26-4 2.41a4 4 0 1 1-3.84-7c1.83-1 2.74-1.59 3.54-2.11a27.79 27.79 0 0 1 2.87-1.66c.22-2.77.4-5.35.56-7.83.65-9.58 1.21-17.85 4-28.54 4-15.5 10.62-28.09 19.65-37.42 1.43-1.48 2.92-2.88 4.37-4.24a58.2 58.2 0 0 0 7.22-7.6c3.13-4.23 4.26-8.84 3-12.33a3.17 3.17 0 0 0-1.08-1.68c-.48-.27-1.83-.37-5.45 2l-18.11 11.9c-5 3.3-7.86 7-11.9 12.59-5.2 7.24-8.8 13.36-11 18.72a74.55 74.55 0 0 1-16.86 24.9 4 4 0 0 1-5.57-5.74c.54-.52 1-1.07 1.58-1.61C277 351 277 340.06 281 331.6a132.53 132.53 0 0 1 8.66-14.8c1.35-2.1 2.75-4.27 4.05-6.41a137.6 137.6 0 0 0 12.45-26.48c1.25-3.63 2.27-7.4 1.3-10.4a5.21 5.21 0 0 0-2.85-3 2.06 2.06 0 0 0-1.75 0 9 9 0 0 0-2.25 2.53l-21.91 30.87c-5.14 7.26-10.46 14.76-14.06 22.85-1 2.31-1.95 4.7-2.92 7.23-3.26 8.47-6.64 17.24-14.34 23a4 4 0 0 1-4.78-6.41 18.72 18.72 0 0 0 1.6-1.35 2.71 2.71 0 0 1-.09-.41c-1.26-10.51-2.82-23.6 1.65-35.26a70.92 70.92 0 0 1 3.61-7.65c.67-1.29 1.3-2.51 1.9-3.75a60.59 60.59 0 0 0 4.93-36.7c-.46-2.54-1-3.22-1.3-3.39a2.49 2.49 0 0 0-2.25.63 15.31 15.31 0 0 0-3.21 4.71l-13.17 25.2c-3.39 6.49-6.9 13.21-8.64 20.21a92.17 92.17 0 0 0-1.88 12 102.7 102.7 0 0 1-2 12.75c-2.67 11-9.18 19.18-17.41 21.84a4.06 4.06 0 0 1-1.23.2 4 4 0 0 1-1.23-7.81 12.4 12.4 0 0 0 2.44-1.11c-.36-7.76-1-16.13-1.68-24.24-.7-8.65-1.42-17.59-1.77-25.87 0-.94-.14-3.45-.85-4-.33-.27-1.77 0-2.57 1-1.26 1.53-1.71 3.93-2.12 6.69-1.37 9.06-2.42 18.26-3.3 27.47l.09.49c-.12 1.42-.3 2.82-.52 4.21-.73 8.09-1.36 16.17-2 24.13-2.12 27.66-4.32 56.12-11 83.59q-.84 3.9-2 7.64c-.4 1.44-.8 2.89-1.23 4.33.87.08 1.73.18 2.56.31 11.83 1.89 17.12 10.83 19.07 19.24a3.78 3.78 0 0 1 .67.05c6.73 1.22 13.5 2.75 20.15 4.53.37-.93.73-1.85 1.12-2.76a4 4 0 0 1 2.32-2.17c1.39-.49 4.88-1.6 7.38-1.16a9 9 0 0 1 6.73 6 13 13 0 0 1 .7 3.37 20.47 20.47 0 0 1 .35 2.44l26.35 4.52c2.34.21 4.69.49 7 .89.06-.11.09-.23.14-.34.87-4.87 1.74-9.74 2.64-14.58a46.18 46.18 0 0 1 3.07-11 19.47 19.47 0 0 1 2.38-4.48 16.72 16.72 0 0 1 5.56-4.66 58.83 58.83 0 0 1 8.87-4.57c1.29-.44 2.47-.96 3.62-1.51zM264.24 539.52c.05-.35.11-.69.16-1a6.82 6.82 0 0 1 .11-1.07c0-.25.1-.5.15-.74q1.13-7.71 2.34-15.41c-12-1.64-24.12-3.57-36.07-5.78a13.17 13.17 0 0 1-8 2.78 12 12 0 0 1-5.36-1.24 6.9 6.9 0 0 1-3.08-2.78 7.06 7.06 0 0 1-.83-3.74c-8.64-1.79-17.43-3.43-26.19-4.89a3.1 3.1 0 0 1-.52-.15 28.38 28.38 0 0 1-8.07 4 22 22 0 0 1-6.27.89c-.49 0-1 0-1.47-.06a48.73 48.73 0 0 1-1.33 6.27c-.33 1.23-.63 2.4-.8 3.34a52.09 52.09 0 0 0-.93 9.28 4 4 0 0 1-2.89 3.81c-.27 1.94-.55 3.87-.83 5.81 9.63 4.73 21.58 4.39 34.34 6.52 10.93 1.83 22.71 1.8 34.34 4 9.69 1.81 21.84 3.67 32.35 3.12 2.26-4.51 1.1-7 .06-9.49a4 4 0 0 1-1.21-3.47z"/>
  </g>
  <path d="M237.67 494l32.88 5.64c-.78 4.57-1.54 9.13-2.28 13.71a784.474 784.474 0 0 1-32.81-5.19c.2-.75.35-1.49.49-2.21.78-3.95 1.33-7.95 1.72-11.95z" fill="#e44747"/>
  <path d="M229.91 482.91a10.94 10.94 0 0 1 .27 3.71 115.72 115.72 0 0 1-2.08 17.8 12.82 12.82 0 0 1-1.1 3.67 4.83 4.83 0 0 1-5.35 2 82.15 82.15 0 0 1 6-27.69 10.52 10.52 0 0 1 1.7-.32 1.91 1.91 0 0 1 .56.83z" fill="#febe31"/>
  <path d="M217.29 487.85a91.37 91.37 0 0 0-3 14.61c-6.42-1.32-12.92-2.56-19.42-3.7 2.76-3 5.69-7.44 5.14-12.77 0-.64.06-1.33.06-2.05 5.73 1.06 11.51 2.4 17.22 3.91z" fill="#e44747"/>
  <g fill="#a8b8e3" fill-rule="evenodd">
    <path d="M561.63 524c1.53-45 3.11-91.56-.18-137.12-3.71-51.27-13.12-94.67-28.78-132.68-2.4-5.82-5.39-12.28-10.58-15.31a10.44 10.44 0 0 0-8.73-.56 5.39 5.39 0 0 0-3.35 3.37 4 4 0 0 1-3.85 2.92 4 4 0 0 1-3.84-2.93 3.69 3.69 0 0 0-2.42-2.21 5.29 5.29 0 0 0-4.67.5c-2.59 1.93-3.34 6.33-1.67 9.82a4 4 0 0 1-6.53 4.47 2.58 2.58 0 0 0-2-.65 4.3 4.3 0 0 0-3.08 1.47c-1.71 2.16-1.39 5.52-.32 7.89 1.48 3.26 4.4 5.9 7.07 8a4 4 0 0 1-1.28 6.92c-2.66.86-3.77 5-3 8.19.88 3.5 3.24 6.68 5.75 10 .48.64 1 1.27 1.42 1.91 6.26 8.6 9.2 18.9 12.05 28.87l.47 1.66a174.08 174.08 0 0 1 7.09 43.11c.2 5.89.44 12.86.63 19.89.95 35.88.65 74.15-8 110.84a4.36 4.36 0 0 1-.17.51v.69c-.24.16-.47.31-.69.44a4 4 0 0 1-4 1.34 4.46 4.46 0 0 1-1-.41c-.05 18.13 25.11 19.81 40.58 23.32 7.93 1.8 19.46 2 23-3.89.1-.08.08-.23.08-.37zM521 324a4 4 0 0 1-5.06-2.52 58.15 58.15 0 0 0-5.73-12.15A4 4 0 1 1 517 305a65.86 65.86 0 0 1 6.52 13.85A4 4 0 0 1 521 324zm8.6-21.42a4 4 0 0 1 5.21 2.2 49.91 49.91 0 0 1 3.46 14.08 4 4 0 0 1-3.59 4.37h-.39a4 4 0 0 1-4-3.62 42.09 42.09 0 0 0-2.91-11.84 4 4 0 0 1 2.22-5.24zm6.75 102.68a4 4 0 0 1-4 3.68h-.32a4 4 0 0 1-3.67-4.31 75.77 75.77 0 0 0-.55-16.89 4 4 0 1 1 7.92-1.15 83.4 83.4 0 0 1 .62 18.62zm1.94-45.11H538a4 4 0 0 1-4-3.67 38.63 38.63 0 0 0-1.52-7.92 4 4 0 1 1 7.64-2.34 45.27 45.27 0 0 1 1.85 9.6 4 4 0 0 1-3.68 4.28zM549 410.42a4 4 0 0 1-4 4 4 4 0 0 1-4-4c0-5 .17-10.08.57-15.07a4 4 0 1 1 8 .64c-.41 4.81-.57 9.65-.57 14.43zM459.88 509.8a861.26 861.26 0 0 1-4.26-117.71c.56-17.38 1.67-35 3.29-52.29.49-5.29.6-11.66-3-13.95-2.6-1.67-6.72-.85-10.72.14a4 4 0 0 1-4.68-5.36 7.69 7.69 0 1 0-14.9-2.63 4 4 0 0 1-7.58 1.91 6.57 6.57 0 0 0-11.78 5.82 4 4 0 0 1-7.06 3.75 2.22 2.22 0 0 0-2-.95 5.94 5.94 0 0 0-4.86 2.22c-2.29 3.17-2.32 7.78-2.12 13l5.93 159.71a4 4 0 0 1-3.85 4.15c1.72 5.14 6.18 9 10.95 11 4.54 1.93 9.72 1.38 15.33 2.55 14.11 3 38.59 4.27 43.42-7.66l.15-.58a4 4 0 0 1-2.26-3.12zm-49.35-131h-.36a4 4 0 0 1-4-3.65l-1.49-16.82a4 4 0 1 1 8-.7l1.49 16.81a4 4 0 0 1-3.64 4.4zM421 411.37h-.2a4 4 0 0 1-4-3.8c-.3-5.92-.7-11.93-1.19-17.86a4 4 0 1 1 8-.66c.5 6 .9 12.11 1.21 18.11a4 4 0 0 1-3.82 4.21zm4.41-46.26a4 4 0 0 1-8 0v-9.19a4 4 0 0 1 8 0zm11.79 24.27a4.21 4.21 0 0 1-1.3.21 4 4 0 0 1-3.78-2.7 24.88 24.88 0 0 1-1-7.75 20.76 20.76 0 0 0-.47-4.92 4 4 0 0 1 7.72-2.12 28.19 28.19 0 0 1 .75 6.87 18.15 18.15 0 0 0 .6 5.33 4 4 0 0 1-2.5 5.08z"/>
  </g>
  <g fill="#1a171b">
    <path d="M182.69 475.77c-2.56 1.43-5.22 2.8-7.91 4.07l-6.62-10.2a4 4 0 1 0-6.71 4.35l7.45 11.48a6.31 6.31 0 0 0 3.13 2.69 5.4 5.4 0 0 0 1.79.31 7.1 7.1 0 0 0 3-.75c3.34-1.53 6.63-3.21 9.78-5a4 4 0 1 0-3.91-7zM111 163.84a58.65 58.65 0 0 1-22.73-10.9 4 4 0 0 0-4.94 6.3 66.67 66.67 0 0 0 25.86 12.39 4 4 0 0 0 1.81-7.79zM100.58 98.07a4 4 0 0 0-6.14 5.14 541.506 541.506 0 0 0 29.21 32.11 4 4 0 0 0 5.7-5.61c-9.97-10.11-19.65-20.71-28.77-31.64zM158.69 110.61a4 4 0 0 0 3.87 3 3.94 3.94 0 0 0 1-.13 4 4 0 0 0 2.86-4.88 146.24 146.24 0 0 0-10.38-27.87 4 4 0 0 0-7.18 3.55 137.66 137.66 0 0 1 9.83 26.33zM200.5 114.21h.22a4 4 0 0 0 4-3.78c.52-9.38 1.44-18.86 2.74-28.17a4 4 0 1 0-7.93-1.11c-1.32 9.53-2.27 19.24-2.8 28.84a4 4 0 0 0 3.77 4.22zM679.08 128.46a3.92 3.92 0 0 0 .59-.05 4 4 0 0 0 3.38-4.54A94.06 94.06 0 0 1 683.1 96a4 4 0 1 0-7.91-1.2 102.24 102.24 0 0 0-.06 30.25 4 4 0 0 0 3.95 3.41zM717.78 122.65a3.67 3.67 0 0 0 .86.1 4 4 0 0 0 3.9-3.15l5.62-25.6a4 4 0 1 0-7.82-1.72l-5.61 25.61a4 4 0 0 0 3.05 4.76zM770.25 106.29a4 4 0 0 0-5.58.93c-5.12 7.2-10.46 14.42-15.86 21.48a4 4 0 1 0 6.35 4.86c5.46-7.13 10.85-14.43 16-21.69a4 4 0 0 0-.91-5.58zM799.46 148.14a4 4 0 0 0-5.46-1.46c-5.68 3.27-11.57 6.32-17.52 9.06a4 4 0 1 0 3.35 7.27c6.17-2.85 12.28-6 18.16-9.4a4 4 0 0 0 1.47-5.47zM408.33 354.05a4 4 0 0 0-3.63 4.34l1.49 16.82a4 4 0 0 0 4 3.65h.36a4 4 0 0 0 3.63-4.34l-1.49-16.81a4 4 0 0 0-4.36-3.66zM421.43 351.92a4 4 0 0 0-4 4v9.19a4 4 0 0 0 8 0v-9.19a4 4 0 0 0-4-4zM419.29 385.4a4 4 0 0 0-3.66 4.32c.49 5.93.89 11.94 1.19 17.86a4 4 0 0 0 4 3.8h.2a4 4 0 0 0 3.79-4.2c-.31-6-.71-12.09-1.21-18.11a4 4 0 0 0-4.31-3.67zM439.11 379a28.19 28.19 0 0 0-.75-6.87 4 4 0 0 0-7.72 2.12 20.76 20.76 0 0 1 .47 4.92 24.88 24.88 0 0 0 1 7.75 4 4 0 0 0 3.78 2.7 4.21 4.21 0 0 0 1.3-.21 4 4 0 0 0 2.49-5.08 18.15 18.15 0 0 1-.57-5.33zM517 305a4 4 0 1 0-6.79 4.24 58.15 58.15 0 0 1 5.73 12.15 4 4 0 1 0 7.58-2.54A65.86 65.86 0 0 0 517 305zM534.29 323.2h.39a4 4 0 0 0 3.59-4.37 49.91 49.91 0 0 0-3.46-14.08 4 4 0 0 0-7.41 3 42.09 42.09 0 0 1 2.91 11.84 4 4 0 0 0 3.98 3.61zM542 355.78a45.27 45.27 0 0 0-1.85-9.6 4 4 0 1 0-7.64 2.34 38.63 38.63 0 0 1 1.52 7.92 4 4 0 0 0 4 3.67h.33a4 4 0 0 0 3.64-4.33zM531.22 383.14a4 4 0 0 0-3.39 4.54 75.77 75.77 0 0 1 .55 16.89 4 4 0 0 0 3.67 4.31h.32a4 4 0 0 0 4-3.68 83.4 83.4 0 0 0-.6-18.68 4 4 0 0 0-4.55-3.38zM545.88 391.72a4 4 0 0 0-4.31 3.67c-.4 5-.59 10.06-.57 15.07a4 4 0 0 0 4 4 4 4 0 0 0 4-4c0-4.78.16-9.62.55-14.39a4 4 0 0 0-3.67-4.35z"/>
    <path d="M764.65 167.87a26.37 26.37 0 0 0-5.72-14.05c-5.57-7-14.53-8.76-22.49-9.9-45.42-6.5-94.72-3.67-142.4-.92-33.57 1.93-68.27 3.92-100.54 2.5-51.48-2.27-104.42-2.57-155.61-2.86-53-.3-107.78-.61-161.38-3.09-6-.28-13.49-.63-20 2.87-11.39 6.13-14 19.87-15 32.49a1167.18 1167.18 0 0 0 3.12 218.69c.36 3.28.8 7.38 3 11 5.77 9.8 20 9.48 28.51 9.3h2.19a280.38 280.38 0 0 1-9.09 41.94c0 .14-.06.29-.09.44-7.28.92-14.46 4.11-18.77 11a28 28 0 0 0-3.63 19.1 29.41 29.41 0 0 0 10.61 18.74 24.64 24.64 0 0 0 5.94 3.42 35.17 35.17 0 0 1-1.22 6.06c-.37 1.38-.71 2.69-.93 3.94a60.32 60.32 0 0 0-1.06 10.68 4 4 0 0 0 4 4 4 4 0 0 0 4-4 52.09 52.09 0 0 1 .93-9.28c.17-.94.47-2.11.8-3.34a48.73 48.73 0 0 0 1.33-6.27c.49 0 1 .06 1.47.06a22 22 0 0 0 6.27-.89 28.38 28.38 0 0 0 8.07-4 3.1 3.1 0 0 0 .52.15c8.76 1.46 17.55 3.1 26.19 4.89a7.06 7.06 0 0 0 .83 3.74 6.9 6.9 0 0 0 3.08 2.78 12 12 0 0 0 5.36 1.24 13.17 13.17 0 0 0 8-2.78c11.95 2.21 24.06 4.14 36.07 5.78q-1.44 9.13-2.76 18.26a4 4 0 0 0 3.38 4.53 3.86 3.86 0 0 0 .58 0 4 4 0 0 0 3.95-3.43c3-20.89 6.52-42 10.38-62.68.91-4.87 1.78-8.83 4.06-11.76 2.53-3.25 6.73-5.1 11.18-7.06 1.26-.55 2.51-1.11 3.73-1.69a62.87 62.87 0 0 0 20.44-15.69c.84-1 1.64-2 2.44-3a45.37 45.37 0 0 1 5.55-6.12c2.73-2.33 6.1-3.95 9.67-5.68 1.37-.65 2.76-1.35 4.14-2.07a4.26 4.26 0 0 0 .8.08h.32c7.53-.59 16.1-.67 24.38-.76 5.33-.05 10.81-.1 16-.3l3 79.87a4 4 0 1 0 8-.3l-6.01-159.7c-.2-5.26-.17-9.87 2.12-13a5.94 5.94 0 0 1 4.86-2.22 2.22 2.22 0 0 1 2 .95 4 4 0 0 0 7.06-3.75 6.57 6.57 0 0 1 11.72-5.86 4 4 0 0 0 7.58-1.91 7.69 7.69 0 1 1 14.95 2.62 4 4 0 0 0 4.68 5.36c4-1 8.12-1.81 10.72-.14 3.55 2.29 3.44 8.66 3 13.95a862.066 862.066 0 0 0-3.29 52.29 861.26 861.26 0 0 0 4.26 117.71 4 4 0 0 0 4 3.58h.42a4 4 0 0 0 3.56-4.4 855.11 855.11 0 0 1-4.65-89.34c1.54.05 3 .12 4.55.2 2.4.12 4.89.24 7.76.26 9 .08 18.19.25 27.07.41h1.65c-.15 26.6-1.95 53.84-8.12 80.09a4 4 0 1 0 7.79 1.83c8.63-36.69 8.93-75 8-110.84-.19-7-.43-14-.63-19.89a174.08 174.08 0 0 0-7.09-43.11l-.47-1.66c-2.85-10-5.79-20.27-12.05-28.87-.46-.64-.94-1.27-1.42-1.91-2.51-3.36-4.87-6.54-5.75-10-.78-3.15.33-7.33 3-8.19a4 4 0 0 0 1.28-6.92c-2.67-2.14-5.59-4.78-7.07-8-1.07-2.37-1.39-5.73.32-7.89a4.3 4.3 0 0 1 3.08-1.47 2.58 2.58 0 0 1 2 .65 4 4 0 0 0 6.53-4.47c-1.67-3.49-.92-7.89 1.67-9.82a5.29 5.29 0 0 1 4.67-.5 3.69 3.69 0 0 1 2.42 2.21 4 4 0 0 0 3.84 2.93 4 4 0 0 0 3.85-2.92 5.39 5.39 0 0 1 3.35-3.37 10.44 10.44 0 0 1 8.73.56c5.19 3 8.18 9.49 10.58 15.31 15.66 38 25.07 81.41 28.78 132.68 3.29 45.56 1.71 92.11.18 137.12a4 4 0 0 0 3.87 4.13h.13a4 4 0 0 0 4-3.87c1.15-34 2.34-68.86 1.44-103.61 9.47-.23 17.89 0 27.81.52 2.12 4.89 4.64 10 8.43 14.32a61.82 61.82 0 0 0 4.54 4.49 49.56 49.56 0 0 1 4.23 4.22 41.27 41.27 0 0 1 6.06 10.65 134.35 134.35 0 0 1 10.73 51.71 4 4 0 0 0 4 4 4 4 0 0 0 4-4 142.48 142.48 0 0 0-11.47-54.92 49.36 49.36 0 0 0-7.33-12.7 56.78 56.78 0 0 0-4.9-4.91 54.3 54.3 0 0 1-4-3.9c-3.77-4.27-6.14-9.9-8.43-15.34-7.85-18.69-16-38-21.45-57.77-1.06-3.8-.94-6.91.27-7.56.6-.31 2.19-.4 6.15 2.56l16 12c7.73 5.78 15.43 11 24.67 10.66a4 4 0 0 0 .25-7.95c1.55-18-4.55-37.16-17.36-54.28-12.37-16.51-28.94-28.89-43.55-38.83-3.41-2.31-4.77-4.56-4.41-5.23a2.81 2.81 0 0 1 1-.88c4.08-2.56 10.21-2 18.23 1.58 15.09 6.79 42.32 21.32 55.17 42.29a4 4 0 1 0 6.82-4.18 77.5 77.5 0 0 0-10.31-13.16v-.15a62.27 62.27 0 0 0-21.43-31.2 119.63 119.63 0 0 0-10.7-7.12c-2.79-1.7-5.41-3.31-8-5.11-6.64-4.69-10.7-9.51-12.4-14.72a4.69 4.69 0 0 1-.35-1.93c.33-.22 2-.4 4.72.52 16.86 5.68 30.47 12.33 41.61 20.33 11.62 8.33 20.79 18.42 26.8 29.41.48 1.43.91 2.84 1.25 4.25a4 4 0 0 0 4.75 3 4 4 0 0 0 3.73-5.64q-1.08-2.37-2.33-4.7c-4.72-13.58-14.46-27.14-22.47-38.3l-.64-.89c-2-2.77-2.89-5.35-2.18-6.28 1-1.26 3-1.95 3.77-1.65a32.36 32.36 0 0 1 7.29 4.17c1.27 1 2.53 2 3.79 3 9.17 7.34 17.84 14.28 25.13 23.14a43 43 0 0 1 7.38 12c1.6 3.92 4.08 9.34 6.48 14.58s4.78 10.45 6.31 14.21a4 4 0 0 0 7.85-.32 117 117 0 0 0-1.45-41.87l-.16-.73a19.88 19.88 0 0 1-.74-6.36c.18-1.5 1-2.88 1.93-3.14 2-.58 4.64 3.27 6.15 7.19 7.41 19.25 15.07 39.15 16.93 59.82 1.29 14.44-.24 29-2.06 43.81-1 8.49-2.18 17.11-3.28 25.46-.87 6.6-1.74 13.21-2.57 19.82-.75 5.94-1.6 12.67-1.26 19.5.34 6.63 1.79 13 3.2 19.24l13.36 59a4 4 0 0 0 3.89 3.11 3.86 3.86 0 0 0 .89-.1 4 4 0 0 0 3-4.78l-13.36-59c-1.33-5.87-2.7-11.94-3-17.89a78.93 78.93 0 0 1 .5-12.12 36.27 36.27 0 0 0 4.34.3 24.32 24.32 0 0 0 16.21-5.57c11.77-10 12.21-30.2 12.45-41.08 0-1.38 0-2.59.1-3.58.63-12.63 1.35-25.05 2.05-37.07 3.08-51.77 5.93-100.66.85-160.79zM322.87 288.49c4.12-.32 9.05-1.05 11.88-4.41a9.66 9.66 0 0 0 1.95-6.35c.1-3.91-.05-7.85-.08-11.77l-.17-21.75-.36-46.86 17.36.26c1.76 33.92 3 68.12 3.81 102.27q.83 36.5.89 72.83c-7.15.12-15.54 5.53-23.7 10.81-5 3.21-10.12 6.54-12.91 7.09a35.07 35.07 0 0 0-5.21 1.53c.09-1.28.17-2.54.26-3.76.64-9.56 1.15-17.1 3.73-27.08 3.65-14.14 9.59-25.53 17.65-33.86 1.29-1.34 2.65-2.61 4.09-4a65.15 65.15 0 0 0 8.18-8.68 23.94 23.94 0 0 0 5.06-14.88 16.55 16.55 0 0 0-.92-4.87 10.77 10.77 0 0 0-4.69-6c-5.53-3.12-11.52.81-13.77 2.29l-18.12 11.9c-6.15 4.05-9.68 8.61-14 14.62-5.56 7.73-9.46 14.39-11.91 20.33a66.4 66.4 0 0 1-6.31 11.74c-.09-5.19.64-10.69 2.65-14.9a126.33 126.33 0 0 1 8.17-13.91c1.38-2.14 2.8-4.35 4.16-6.59a145.52 145.52 0 0 0 13-27.62c2.52 1.82 6.1 1.87 9.31 1.62zm-12-91.5c-.3 14.82-.29 29.65-.38 44.48q-.08 11.44-.13 22.9v.28a12.91 12.91 0 0 0-2.8-1.58 9.88 9.88 0 0 0-8.54.37 10.48 10.48 0 0 0-1.11.71 74.75 74.75 0 0 0 1.14-11.35c.26-8.07-.2-16.18-.43-24.24q-.39-13.78-.77-27.56a21.46 21.46 0 0 0-.32-4.21zm-56.06 53.8q.34-5.41.63-10.84 1.2-21.84 1.69-43.72 5.78 0 11.48.14h2.85c1 16.78.4 33.72.77 50.53q.3 13.86.84 27.72c.12 3.18-.13 7 2.12 9.61a7.59 7.59 0 0 0 5.92 2.38l-9 12.64c-5.36 7.57-10.91 15.4-14.84 24.22-1.11 2.5-2.11 5.09-3.08 7.6-1 2.67-2 5.29-3.15 7.75-.62-7.6-.56-15.46 2.13-22.46a66.29 66.29 0 0 1 3.23-6.81c.67-1.29 1.37-2.63 2-4a68.67 68.67 0 0 0 5.6-41.59c-.55-3-1.61-6.7-5-8.78a8.78 8.78 0 0 0-4.47-1.27c.24-1 .24-2.1.3-3.12zm-49.14-50.68c1.54-1.25 4-1.65 6.61-2 5.66-.71 11.37-1.17 17.1-1.47-.34 6.75 1.42 27.93 1.61 37.64q.21 10.37.43 20.75c.13 6.25-.25 12.77.46 19 .21 1.85 1.08 3.92 2.52 4.82l-5.24 10c-3.61 6.9-7.34 14.05-9.31 22a99.3 99.3 0 0 0-2.07 13.07A95.69 95.69 0 0 1 216 335.7a32.68 32.68 0 0 1-2.14 6.15c-.36-5.31-.79-10.72-1.22-16-.69-8.58-1.41-17.44-1.75-25.57-.1-2.46-.29-7.06-3.81-9.9-.16-.13-.32-.23-.49-.35l-3.43-78.31c-.23-4.8-.07-9.5 2.53-11.61zm-41.75 33.06a4.89 4.89 0 0 1-.61-2.32 8.65 8.65 0 0 1 8.73-9.06 8.54 8.54 0 0 1 1.43.12l3 .87a5.7 5.7 0 0 1 3.09 5 10.9 10.9 0 0 1-2.89 7.27c-1.53 1.8-3.21 2.83-4.62 2.83-1.5 0-3.33-1.18-4.95-2.2a10.43 10.43 0 0 1-3.16-2.51zm12.36 45.2a7 7 0 0 1-2.33 2.31 3.6 3.6 0 0 1-1.84 0c-4.24-.83-7.53-5.94-7-10.94a8.46 8.46 0 0 1 1.56-4.37 5.8 5.8 0 0 1 4.52-2 5.28 5.28 0 0 1 2.94.84 4 4 0 0 0 2 .66h.67c1.66.35 3.1 2.56 3.11 4.85.02 2.52-1.13 5.28-3.61 8.65zM186 496.09c-2.84 2.37-5.94 4.71-9.4 5.73a16.32 16.32 0 0 1-14.35-3 21.41 21.41 0 0 1-7.62-13.64 20.33 20.33 0 0 1 2.49-13.65c2.45-3.91 7.92-7.58 16.41-7.58a32.63 32.63 0 0 1 5.22.44c6 .95 9.89 4.54 11.92 11a31.92 31.92 0 0 1 1.33 10.39 4.13 4.13 0 0 0 0 .86c.36 2.63-1.66 5.81-6 9.45zm28.26 6.37c-6.42-1.32-12.92-2.56-19.42-3.7 2.76-3 5.69-7.44 5.14-12.77 0-.64.06-1.33.06-2.05 5.77 1.09 11.55 2.4 17.26 3.91a91.37 91.37 0 0 0-3.05 14.61zm15.93-15.84a115.72 115.72 0 0 1-2.08 17.8 12.82 12.82 0 0 1-1.1 3.67 4.83 4.83 0 0 1-5.35 2 82.15 82.15 0 0 1 6-27.69 10.52 10.52 0 0 1 1.7-.32 1.91 1.91 0 0 1 .57.84 10.94 10.94 0 0 1 .25 3.7zm38.09 26.74a784.474 784.474 0 0 1-32.81-5.19c.2-.75.35-1.49.49-2.21.78-3.94 1.33-7.94 1.72-11.95l32.88 5.64c-.79 4.57-1.56 9.13-2.29 13.71zM341.54 417c-1.72 1-3.51 1.84-5.41 2.76-3.87 1.86-7.88 3.8-11.39 6.79a50.87 50.87 0 0 0-6.59 7.2c-.76.94-1.51 1.88-2.28 2.79a54.89 54.89 0 0 1-17.82 13.67c-1.15.55-2.33 1.07-3.51 1.59-4.92 2.17-10.5 4.63-14.27 9.47s-4.73 10.52-5.61 15.21q-1.41 7.59-2.76 15.25L238.2 486a15.58 15.58 0 0 0-.76-5.76 9 9 0 0 0-6.73-6c-2.5-.44-6 .67-7.38 1.16a4 4 0 0 0-2.32 2.17c-.39.91-.75 1.83-1.12 2.76a252.24 252.24 0 0 0-20.15-4.53 3.78 3.78 0 0 0-.67-.05c-1.95-8.41-7.24-17.35-19.07-19.24-.83-.13-1.69-.23-2.56-.31 9.24-31.1 11.77-63.86 14.2-95.56 1.42-18.56 2.89-37.74 5.7-56.3.41-2.76.86-5.16 2.12-6.69.8-1 2.24-1.29 2.57-1 .71.57.81 3.08.85 4 .35 8.28 1.07 17.22 1.77 25.87.65 8.11 1.32 16.48 1.68 24.24a12.4 12.4 0 0 1-2.44 1.11 4 4 0 0 0 1.23 7.81 4.06 4.06 0 0 0 1.23-.2c8.23-2.66 14.74-10.82 17.41-21.84a102.7 102.7 0 0 0 2-12.75 92.17 92.17 0 0 1 1.88-12c1.74-7 5.25-13.72 8.64-20.21l13.17-25.2a15.31 15.31 0 0 1 3.21-4.71 2.49 2.49 0 0 1 2.25-.63c.29.17.84.85 1.3 3.39a60.59 60.59 0 0 1-4.93 36.7c-.6 1.24-1.23 2.46-1.9 3.75a70.92 70.92 0 0 0-3.61 7.65c-4.47 11.66-2.91 24.75-1.65 35.26a2.71 2.71 0 0 0 .09.41 18.72 18.72 0 0 1-1.6 1.35 4 4 0 0 0 4.78 6.41c7.7-5.74 11.08-14.51 14.34-23 1-2.53 1.89-4.92 2.92-7.23 3.6-8.09 8.92-15.59 14.06-22.85L300.62 273a9 9 0 0 1 2.25-2.53 2.06 2.06 0 0 1 1.75 0 5.21 5.21 0 0 1 2.85 3c1 3-.05 6.77-1.3 10.4a137.6 137.6 0 0 1-12.45 26.48c-1.3 2.14-2.7 4.31-4.05 6.41A132.53 132.53 0 0 0 281 331.6c-4 8.46-4 19.4-2.58 27.2-.53.54-1 1.09-1.58 1.61a4 4 0 0 0 5.57 5.74 74.55 74.55 0 0 0 16.86-24.9c2.22-5.36 5.82-11.48 11-18.72 4-5.63 6.87-9.29 11.9-12.59L340.31 298c3.62-2.38 5-2.28 5.45-2a3.17 3.17 0 0 1 1.08 1.68c1.23 3.49.1 8.1-3 12.33a58.2 58.2 0 0 1-7.22 7.6c-1.45 1.36-2.94 2.76-4.37 4.24-9 9.33-15.64 21.92-19.65 37.42-2.76 10.69-3.32 19-4 28.54-.16 2.48-.34 5.06-.56 7.83a27.79 27.79 0 0 0-2.87 1.66c-.8.52-1.71 1.11-3.54 2.11a4 4 0 1 0 3.84 7c2.09-1.15 3.17-1.85 4-2.41a26.17 26.17 0 0 1 5-2.56 48.88 48.88 0 0 1 8.51-3c4.32-.84 9.61-4.26 15.74-8.23 7-4.51 16.55-10.71 20.84-9.37.37.11 1.34.41 2.17 2.4 1.41 3.35 0 8-1.35 11.62A43.39 43.39 0 0 1 341.54 417zm27.62-.79c-4.53 0-9.14.09-13.65.22A51.32 51.32 0 0 0 368 397.69l.05-.12c3.16 0 5.85-.17 8.45-.3s4.94-.24 7.76-.29l.7 19c-5.04.15-10.28.21-15.8.27zm16.72-90.18c-4.1 5.66-3.83 12.81-3.64 18l1.67 44.97c-2.9 0-5.41.18-7.85.3-1.95.09-3.83.18-5.88.24a17.72 17.72 0 0 0-1-9.35 13.2 13.2 0 0 0-3-4.52c-.05-59-1.63-118.89-4.69-177.92l18.65.27c-1.41 18.18-1.68 36.5-1.46 54.73q.07 7 .29 13.93c.14 4.32 0 8.77.61 13.06.42 3.15 1.77 5.86 4.84 7.12a14.48 14.48 0 0 0 3.78.89c.11 11.11.45 21.52 1.11 35.13a13 13 0 0 0-3.43 3.19zm47.8-24a16 16 0 0 0-10.45 4 16.93 16.93 0 0 0-3.63 4.39 14.27 14.27 0 0 0-21.69 10.08h-.72c-.59-12.42-.9-22.21-1-32.56 1.75.06 3.51.14 5.26.14a6.06 6.06 0 0 0 3.94-1c2.54-2.06 2-6.71 2.17-9.57q.84-14.16 1.25-28.35t.4-28.38q0-7.23-.12-14.44c0-2.33-.07-4.65-.13-7v-1l15.31.22c.06 18.78.65 37.56 1 56.33l.32 14.83c.08 3.6-.35 7.78 1 11.21 1.19 3 3.91 4.55 7 5.34.16 5.33.16 10.58.09 15.8zm26.61 17.05c-3.6-2.31-7.72-2.48-11.33-2a16.92 16.92 0 0 0-7.3-12.54c.1-5.84.1-11.72 0-17.6.5 0 1-.07 1.46-.12 2.79-.28 5.57-1.24 7.29-3.57 2.21-3 1.9-7 1.9-10.53v-28.65-29.64-14.33q0-.56-.06-1l12.45.18q.06 28.8.25 57.58c0 4.81 0 9.62.09 14.42.09 3.73.42 7.56 2 11a12.67 12.67 0 0 0 9.09 7.32 3.26 3.26 0 0 0-.05.45c0 17.28.27 33.95.54 50.06.27 15.71.54 32 .54 48.76-4.36.06-8.82.12-13.38.15a849.57 849.57 0 0 1 3.12-48.42c.43-4.9 1.49-16.26-6.61-21.48zm24.86-16.34c5.43 7.45 8.17 17.06 10.83 26.36l.47 1.66a166.31 166.31 0 0 1 6.78 41.24c.17 4.93.37 10.62.53 16.45-6.4.05-12.6.15-18.63.25 0-16.82-.27-33.06-.54-48.77-.21-12.52-.42-25.38-.5-38.58zm-.72 93.92c6.32-.1 12.82-.21 19.54-.26.12 5.32.21 10.68.24 16.08h-1.51c-8.89-.16-18.09-.33-27.13-.41-2.71 0-5.12-.14-7.45-.25-1.57-.08-3.19-.15-4.9-.2q.06-7.33.26-14.66c7.23-.04 14.2-.15 20.95-.26zM520.69 230a18.53 18.53 0 0 0-10.33.93 14.64 14.64 0 0 0-4.45 2.77 12.45 12.45 0 0 0-3.42-1.77 13.2 13.2 0 0 0-12 1.64 13.6 13.6 0 0 0-1.09.92c1.29-11.55 1.85-23.25 2.08-34.85l28.82.42c.44 9.94.58 19.94.39 29.94zm19.38 21.16c-2.56-6.2-5.74-13-11.5-17.5a4.18 4.18 0 0 0 .07-.51c.28-10.94.14-22-.37-33l22.26.33q-.07 25.53 0 51.08c0 4.32-.13 8.68.09 13 .17 3.38.73 6.89 2.58 9.79a11.18 11.18 0 0 0 6.43 5c.18.05.37.08.56.12.39 7.79.84 15.73 1.28 23.46.56 9.93 1.12 20 1.59 30-5.17-29.93-12.77-56.93-22.99-81.79zm82.76 114.12c-4-1.63-8-4.46-12.22-7.63l-.74-.55a3.07 3.07 0 0 0 .07-.53c.37-11.92.18-24-.57-35.91 9.8 14.34 14.51 29.97 13.46 44.6zm-34.09 32h.2c2.13 5.3 4.31 10.54 6.49 15.74-8.51-.39-16.13-.56-24.61-.35-.19-5.49-.45-11-.76-16.47 2.74.08 5.12.3 7.6.52 3.19.29 6.5.58 10.67.58zm11.92-87.64a4.54 4.54 0 0 0-.07 1.11 374.66 374.66 0 0 1 1.47 40.49l-7.42-5.56c-2.35-1.76-8.61-6.44-14.69-3.21-3.44 1.83-5.23 5.36-5.23 10.08a25.24 25.24 0 0 0 1 6.68c2.82 10.18 6.3 20.18 10.07 30-2.67-.09-5-.3-7.42-.52-2.06-.19-4.17-.39-6.53-.5.36-11.7.28-23.62-.06-35.6-.46-16.75-1.41-33.62-2.35-50.19-.37-6.61-.75-13.38-1.1-20.08 10.86 7.54 22.53 16.43 32.33 27.3zm-9-52.58c2.75 1.94 5.62 3.7 8.39 5.39a115.56 115.56 0 0 1 10 6.63 54 54 0 0 1 11.34 12 187 187 0 0 0-33.41-19.21 45.22 45.22 0 0 0-10.32-3.36l-.09-17c2.61 5.62 7.24 10.73 14.05 15.55zm4.25-28.46q-2.5-.9-5.11-1.79c-5.83-2-10.64-1.27-13.29 1.8l-.12-22.4a43.11 43.11 0 0 0 0-5.33l18.15.26c0 4.91.16 9.84.25 14.74 0 2.83.11 5.65.16 8.48-.02 1.3-.14 2.8-.08 4.24zm38.54 17.89l.64.89c.63.87 1.27 1.77 1.91 2.67-.81-.62-1.63-1.23-2.47-1.83a131.06 131.06 0 0 0-13.57-8.49q-.24-19.12-1.32-38.23l17.37.25c-.33 3.61.14 13 .3 15.82s.36 5.84.7 8.73v.28a13 13 0 0 0-5.64 4.11c-1.79 2.31-3.91 7.52 2.04 15.8zm43.16-39.66c-.49 13.68-1.07 29.94-.53 43.85-4-3.94-8.27-7.57-12.67-11.15 0-.07 0-.13.07-.2.55-2.25.37-4.83.45-7.13.11-3.29.15-6.57.11-9.86-.06-5.91-.37-11.83-.91-17.72-.08-.84-.15-1.68-.25-2.48l13.89.21c-.09 1.45-.14 2.94-.2 4.48zM704 244.9c-4 1.19-7 5-7.6 9.84a26.29 26.29 0 0 0 .87 9.06l.15.71a108.64 108.64 0 0 1 2.48 23.18 1.47 1.47 0 0 0-.1-.22c-2.36-5.17-4.8-10.51-6.33-14.28a49.76 49.76 0 0 0-7.84-13.06c-1.46-15-.71-36-.11-53 .06-1.61.12-3.15.17-4.66l16.5.24c1.07 0 3.57.06 4.21.79.49.55.62 2.26.69 3.28.48 6.47.49 14 .5 21.27 0 5.53 0 11.19.23 16.52a9.66 9.66 0 0 0-3.82.33z"/>
  </g>
</svg>
