<svg width="131" height="82" xmlns="http://www.w3.org/2000/svg"><g fill="none" fill-rule="evenodd"><path d="M79.653 8.608a189.425 189.425 0 0 0 3.5-4.092C84.248 3.198 85.44 1.816 87 1.41c2.348-.612 4.635 1.165 6.386 3.03 1.744 1.86 33.419 18.525 34.808 20.732.378.599.753 1.25.796 1.984.051.887-.394 1.704-.822 2.45-1.01 1.765-1.45 7.321-4.104 5.886-5.792-3.132-20.596-12.093-44.412-26.884z" fill="#B6C6E9"/><path d="M127.965 29.033c-6.522 12.874-36.8 37.222-44.973 48.458-3.943 5.42-36.145-28.92-40.43-23.938 1.096-5.006 2.615-7.788 4.558-8.346" stroke="#04303E" stroke-width="2.5" stroke-linecap="round" stroke-linejoin="round"/><path d="M127.965 29.033c-6.522 12.874-28.202 39.924-36.375 51.16-3.943 5.42-43.01-40.364-47.294-35.383" stroke="#04303E" stroke-width="2.5" stroke-linecap="round" stroke-linejoin="round"/><path d="M45.494 43.78C61.511 23.039 66.468 24.579 83.152 4.517c1.097-1.318 2.289-2.7 3.85-3.106 2.347-.612 4.634 1.165 6.385 3.03 1.744 1.86 33.419 18.525 34.808 20.732.378.599.753 1.25.796 1.984.051.887-.394 1.704-.822 2.45C121.647 41 98.586 61.639 90.413 71.583 86.47 76.38 48.625 41.529 44.34 45.938" stroke="#04303E" stroke-width="2.5" stroke-linecap="round" stroke-linejoin="round"/><path d="M80.296 10.35c2.348-.611 4.635 1.166 6.386 3.031 1.744 1.859 33.418 18.524 34.808 20.731.377.599.753 1.25.796 1.985.051.886-.394 1.703-.822 2.449" stroke="#04303E" stroke-width="2.5" stroke-linecap="round" stroke-linejoin="round"/><path d="M78.061 20.356c1.617-.353 3.19.674 4.396 1.753.388.347 4.552.738 7.843 2.301 1.656.788 1.56 3.11 3.278 4.062 2.07 1.149 4.395.815 6.459 1.643 3.35 1.343 6.075 3.574 6.38 3.98.259.347.518.723.547 1.148.035.513 2.006 1.126 1.712 1.557M103.118 42.317c-1.616.354-3.19-.674-4.396-1.752-.387-.348-4.552-.739-7.842-2.302-1.657-.787-1.561-3.11-3.278-4.062-2.07-1.148-4.396-.815-6.46-1.642-3.35-1.344-6.075-3.575-6.38-3.981-.259-.347-.518-.723-.547-1.148-.035-.512-2.006-1.126-1.711-1.557M83.057 47.203c-1.656-.787-1.561-3.11-3.278-4.062-2.07-1.148-4.396-.815-6.46-1.642-3.35-1.344-2.711-3.627-3.016-4.033-.26-.346-3.881-.67-3.91-1.096-.036-.512-2.007-1.126-1.712-1.557" stroke="#EC5F59" stroke-width="2.5" stroke-linecap="round" stroke-linejoin="round"/><g stroke="#04303E" stroke-linecap="round" stroke-linejoin="round" stroke-width="2.5"><path d="M47.354 12.132c1.928-1.254 5.287-.619 7.316.077-.188 1.926-2.563 4.024-4.037 5.138-.492.372-1.293.666-1.554 1.221M10.648 24.038a230.695 230.695 0 0 0-6.794 3.223c-.906.448-1.937 1.078-2.045 2.09-.09.854.54 1.57 1.19 2.074.757.59 1.658 1.074 2.63 1.023.648-.034 1.27-.303 1.875-.568 1.653-.721 3.305-1.444 4.957-2.167"/><path d="M10.622 23.309A926.21 926.21 0 0 1 43.15 12.83c.716-.216 1.485-.433 2.2-.214 1.078.33 1.635 1.501 1.958 2.58.321 1.073.537 2.176.643 3.292.029.303.046.624-.089.897-.163.33-.512.519-.84.686-4.998 2.56-10.027 5.134-15.394 6.788-2.589.799-5.24 1.378-7.886 1.957L13.188 31.12c-.11.024-.234.047-.333-.008-.093-.051-.14-.157-.18-.255l-2.5-5.983M5.777 32.417c.879 1.643 1.768 3.301 2.987 4.711 1.217 1.41 2.81 2.57 4.64 2.926 1.95.38 3.951-.176 5.833-.812 3.615-1.225 7.22-2.837 9.872-5.581"/></g></g></svg>